<svg width="107" height="24" viewBox="0 0 107 24" fill="none" xmlns="http://www.w3.org/2000/svg">
<g clip-path="url(#clip0_37_1681)">
<rect y="5" width="15" height="15" rx="1.5" fill="url(#paint0_linear_37_1681)"/>
<path d="M2.2605 13.5575H6.45075V15.5H-0.43125V13.6962L3.73125 7.70225H-0.43125V5.75975H6.45075V7.5635L2.2605 13.5575Z" fill="white"/>
<path d="M11.0918 18.5971C10.176 18.5971 9.33425 18.3844 8.5665 17.9589C7.808 17.5334 7.20213 16.9414 6.74888 16.1829C6.30487 15.4151 6.08287 14.5549 6.08287 13.6021C6.08287 12.6494 6.30487 11.7937 6.74888 11.0352C7.20213 10.2767 7.808 9.68475 8.5665 9.25925C9.33425 8.83375 10.176 8.621 11.0918 8.621C12.0075 8.621 12.8446 8.83375 13.6031 9.25925C14.3709 9.68475 14.9721 10.2767 15.4069 11.0352C15.8509 11.7937 16.0729 12.6494 16.0729 13.6021C16.0729 14.5549 15.8509 15.4151 15.4069 16.1829C14.9629 16.9414 14.3616 17.5334 13.6031 17.9589C12.8446 18.3844 12.0075 18.5971 11.0918 18.5971ZM11.0918 16.4326C11.8688 16.4326 12.4885 16.1736 12.951 15.6556C13.4228 15.1376 13.6586 14.4531 13.6586 13.6021C13.6586 12.7419 13.4228 12.0574 12.951 11.5486C12.4885 11.0306 11.8688 10.7716 11.0918 10.7716C10.3055 10.7716 9.6765 11.026 9.20475 11.5347C8.74225 12.0435 8.511 12.7326 8.511 13.6021C8.511 14.4624 8.74225 15.1515 9.20475 15.6695C9.6765 16.1782 10.3055 16.4326 11.0918 16.4326Z" fill="white"/>
</g>
<path d="M23.179 19V17.3665L28.804 10.3139V10.2216H23.3636V8.09091H31.9503V9.84517L26.5952 16.777V16.8693H32.1349V19H23.179ZM38.9975 19.2131C37.9322 19.2131 37.0089 18.9787 36.2276 18.5099C35.4464 18.0412 34.8403 17.3854 34.4094 16.5426C33.9833 15.6998 33.7702 14.715 33.7702 13.5881C33.7702 12.4612 33.9833 11.474 34.4094 10.6264C34.8403 9.77888 35.4464 9.12074 36.2276 8.65199C37.0089 8.18324 37.9322 7.94886 38.9975 7.94886C40.0629 7.94886 40.9862 8.18324 41.7674 8.65199C42.5487 9.12074 43.1523 9.77888 43.5785 10.6264C44.0094 11.474 44.2248 12.4612 44.2248 13.5881C44.2248 14.715 44.0094 15.6998 43.5785 16.5426C43.1523 17.3854 42.5487 18.0412 41.7674 18.5099C40.9862 18.9787 40.0629 19.2131 38.9975 19.2131ZM39.0117 17.1534C39.5894 17.1534 40.0723 16.9948 40.4606 16.6776C40.8488 16.3556 41.1377 15.9247 41.3271 15.3849C41.5212 14.8452 41.6183 14.2438 41.6183 13.581C41.6183 12.9134 41.5212 12.3097 41.3271 11.7699C41.1377 11.2254 40.8488 10.7921 40.4606 10.4702C40.0723 10.1482 39.5894 9.98722 39.0117 9.98722C38.4199 9.98722 37.9274 10.1482 37.5344 10.4702C37.1462 10.7921 36.855 11.2254 36.6609 11.7699C36.4715 12.3097 36.3768 12.9134 36.3768 13.581C36.3768 14.2438 36.4715 14.8452 36.6609 15.3849C36.855 15.9247 37.1462 16.3556 37.5344 16.6776C37.9274 16.9948 38.4199 17.1534 39.0117 17.1534ZM48.978 12.608V19H46.407V8.09091H48.8643V9.9446H48.9922C49.2431 9.33381 49.6432 8.84848 50.1925 8.48864C50.7464 8.12879 51.4306 7.94886 52.245 7.94886C52.9979 7.94886 53.6536 8.10985 54.2124 8.43182C54.7758 8.75379 55.2114 9.22017 55.5192 9.83097C55.8317 10.4418 55.9856 11.1828 55.9808 12.054V19H53.4098V12.4517C53.4098 11.7225 53.2204 11.152 52.8416 10.7401C52.4676 10.3281 51.9491 10.1222 51.2862 10.1222C50.8364 10.1222 50.4363 10.2216 50.0859 10.4205C49.7403 10.6146 49.468 10.8963 49.2692 11.2656C49.075 11.6349 48.978 12.0824 48.978 12.608ZM63.424 19.2131C62.3303 19.2131 61.3857 18.9858 60.5902 18.5312C59.7995 18.072 59.1911 17.4233 58.7649 16.5852C58.3388 15.7424 58.1257 14.7505 58.1257 13.6094C58.1257 12.4872 58.3388 11.5024 58.7649 10.6548C59.1958 9.80256 59.7971 9.13968 60.5689 8.66619C61.3407 8.18797 62.2474 7.94886 63.2891 7.94886C63.9614 7.94886 64.5959 8.05777 65.1925 8.27557C65.7938 8.48864 66.3241 8.82008 66.7834 9.26989C67.2474 9.7197 67.612 10.2926 67.8771 10.9886C68.1423 11.6799 68.2749 12.5038 68.2749 13.4602V14.2486H59.3331V12.5156H65.8104C65.8056 12.0232 65.6991 11.5852 65.4908 11.2017C65.2824 10.8134 64.9912 10.508 64.6172 10.2855C64.2479 10.063 63.817 9.9517 63.3246 9.9517C62.799 9.9517 62.3374 10.0795 61.9396 10.3352C61.5419 10.5862 61.2318 10.9176 61.0092 11.3295C60.7914 11.7367 60.6802 12.1842 60.6754 12.6719V14.1847C60.6754 14.8191 60.7914 15.3636 61.0234 15.8182C61.2554 16.268 61.5798 16.6136 61.9964 16.8551C62.4131 17.0919 62.9008 17.2102 63.4595 17.2102C63.8336 17.2102 64.1721 17.1581 64.4751 17.054C64.7782 16.9451 65.041 16.7865 65.2635 16.5781C65.486 16.3698 65.6541 16.1117 65.7678 15.804L68.1683 16.0739C68.0168 16.7083 67.728 17.2623 67.3018 17.7358C66.8804 18.2045 66.3407 18.5691 65.6825 18.8295C65.0244 19.0852 64.2715 19.2131 63.424 19.2131ZM83.5607 11.7273C83.5607 13.2945 83.2672 14.6368 82.68 15.7543C82.0977 16.867 81.3022 17.7192 80.2937 18.3111C79.2899 18.9029 78.1512 19.1989 76.8775 19.1989C75.6038 19.1989 74.4627 18.9029 73.4542 18.3111C72.4504 17.7145 71.6549 16.8598 71.0678 15.7472C70.4854 14.6297 70.1942 13.2898 70.1942 11.7273C70.1942 10.16 70.4854 8.82008 71.0678 7.70739C71.6549 6.58996 72.4504 5.73532 73.4542 5.14347C74.4627 4.55161 75.6038 4.25568 76.8775 4.25568C78.1512 4.25568 79.2899 4.55161 80.2937 5.14347C81.3022 5.73532 82.0977 6.58996 82.68 7.70739C83.2672 8.82008 83.5607 10.16 83.5607 11.7273ZM80.9116 11.7273C80.9116 10.6241 80.7388 9.69366 80.3931 8.93608C80.0522 8.17377 79.5787 7.59848 78.9727 7.21023C78.3666 6.81723 77.6682 6.62074 76.8775 6.62074C76.0868 6.62074 75.3884 6.81723 74.7823 7.21023C74.1763 7.59848 73.7004 8.17377 73.3548 8.93608C73.0138 9.69366 72.8434 10.6241 72.8434 11.7273C72.8434 12.8305 73.0138 13.7633 73.3548 14.5256C73.7004 15.2831 74.1763 15.8584 74.7823 16.2514C75.3884 16.6397 76.0868 16.8338 76.8775 16.8338C77.6682 16.8338 78.3666 16.6397 78.9727 16.2514C79.5787 15.8584 80.0522 15.2831 80.3931 14.5256C80.7388 13.7633 80.9116 12.8305 80.9116 11.7273ZM92.8913 14.4119V8.09091H95.4624V19H92.9695V17.0611H92.8558C92.6096 17.6719 92.2048 18.1714 91.6413 18.5597C91.0826 18.9479 90.3937 19.142 89.5746 19.142C88.8596 19.142 88.2275 18.9834 87.6783 18.6662C87.1338 18.3442 86.7076 17.8778 86.3999 17.267C86.0921 16.6515 85.9382 15.9081 85.9382 15.0369V8.09091H88.5092V14.6392C88.5092 15.3305 88.6986 15.8797 89.0774 16.2869C89.4562 16.6941 89.9534 16.8977 90.5689 16.8977C90.9477 16.8977 91.3146 16.8054 91.6697 16.6207C92.0249 16.4361 92.3161 16.1615 92.5433 15.7969C92.7753 15.4276 92.8913 14.9659 92.8913 14.4119ZM103.554 8.09091V10.0795H97.2823V8.09091H103.554ZM98.8306 5.47727H101.402V15.7188C101.402 16.0644 101.454 16.3295 101.558 16.5142C101.667 16.6941 101.809 16.8172 101.984 16.8835C102.159 16.9498 102.353 16.983 102.566 16.983C102.727 16.983 102.874 16.9711 103.007 16.9474C103.144 16.9238 103.248 16.9025 103.319 16.8835L103.752 18.8935C103.615 18.9408 103.419 18.9929 103.163 19.0497C102.912 19.1065 102.604 19.1397 102.24 19.1491C101.596 19.1681 101.016 19.071 100.5 18.858C99.9835 18.6402 99.574 18.304 99.271 17.8494C98.9727 17.3949 98.8259 16.8267 98.8306 16.1449V5.47727Z" fill="#393737"/>
<defs>
<linearGradient id="paint0_linear_37_1681" x1="0.5625" y1="5.75" x2="14.4375" y2="19.625" gradientUnits="userSpaceOnUse">
<stop stop-color="#061F0F"/>
<stop offset="0.5" stop-color="#585858"/>
<stop offset="1" stop-color="#061F0F"/>
</linearGradient>
<clipPath id="clip0_37_1681">
<rect y="5" width="15" height="15" rx="1.5" fill="white"/>
</clipPath>
</defs>
</svg>
