<svg width="460" height="343" viewBox="0 0 460 343" fill="none" xmlns="http://www.w3.org/2000/svg">
<g clip-path="url(#clip0_32_78)">
<path d="M31.3388 289.726C29.1275 289.726 26.9117 289.831 24.7479 290.043L24.4329 290.074C10.0797 291.538 -0.418927 300.03 0.012847 309.828L0.0963167 311.599C0.151363 312.719 0.210011 313.923 0.258288 315.259C0.284426 315.918 1.06366 316.424 2.03325 316.424H355.087C379.979 316.249 404.781 316.03 428.799 315.771C433.307 315.782 437.811 315.513 442.285 314.965C448.96 314.054 453.593 312.247 456.45 309.442H456.451C460.003 305.964 460.115 301.584 459.9 296.636C459.463 286.643 459.029 276.146 458.595 265.681C458.213 256.457 457.832 247.258 457.451 238.451C457.216 233.225 456.692 228.612 452.658 225.086C448.285 221.273 440.31 219.34 428.953 219.34C428.816 219.34 428.68 219.34 428.541 219.341C392.951 219.487 357.687 233.604 340.792 254.47C338.847 256.873 337.034 259.445 335.281 261.934C332.718 265.753 329.889 269.387 326.815 272.807C325.108 274.651 323.237 276.334 321.223 277.836C321.086 277.945 320.929 278.062 320.763 278.174C320.383 278.459 319.986 278.735 319.599 278.98C317.36 280.475 314.97 281.729 312.468 282.72L312.218 282.817C312.029 282.894 311.825 282.972 311.622 283.043C310.179 283.576 308.709 284.03 307.217 284.401C300.777 286.038 293.454 286.431 285.452 285.567C278.061 284.742 270.796 283.034 263.811 280.479C256.401 277.777 249.465 274.409 242.758 271.152C239.811 269.721 236.764 268.241 233.721 266.84C233.149 266.576 232.586 266.318 232.015 266.06C228.298 264.389 224.928 263.008 221.713 261.84C213.815 258.949 205.551 257.184 197.163 256.595C188.311 256.036 180.511 257.09 173.985 259.721C172.171 260.451 170.418 261.322 168.742 262.327C161.011 266.959 156.245 273.794 151.637 280.404C145.904 288.626 139.976 297.128 128.27 301.536C114.763 306.627 95.047 304.512 81.0981 300.834C76.7126 299.677 72.3325 298.347 68.0962 297.06C66.3854 296.54 64.6733 296.024 62.9599 295.511C59.5932 294.508 56.8378 293.74 54.2886 293.091L53.4823 292.884C53.0338 292.772 52.5849 292.66 52.1278 292.553C49.0999 291.819 46.2804 291.242 43.5039 290.788L42.8469 290.678C41.5299 290.477 40.2986 290.311 39.0904 290.171L38.608 290.115C36.1938 289.854 33.7671 289.724 31.3388 289.726Z" fill="#3B965A"/>
<path d="M72.5205 316.377C72.5199 316.183 72.5963 315.996 72.7331 315.858C72.8698 315.72 73.0556 315.642 73.2496 315.642H386.719C386.912 315.643 387.097 315.72 387.234 315.858C387.37 315.995 387.447 316.181 387.447 316.375C387.447 316.568 387.37 316.754 387.234 316.892C387.097 317.029 386.912 317.107 386.719 317.108H73.2496C73.0564 317.107 72.8713 317.03 72.7347 316.893C72.5981 316.756 72.5211 316.571 72.5205 316.377Z" fill="#CACACA"/>
<path d="M319.69 26.4945C319.7 33.1708 317.185 39.6028 312.65 44.494C312.306 44.8695 311.944 45.2327 311.575 45.5835C297.911 35.0444 283.58 25.4028 268.673 16.7191C268.857 16.2513 269.054 15.7896 269.269 15.3341C271.805 9.86157 276.13 5.42065 281.528 2.74575C286.925 0.0708511 293.072 -0.677784 298.952 0.623662C304.831 1.92511 310.092 5.19868 313.863 9.90296C317.634 14.6072 319.689 20.4604 319.69 26.4945Z" fill="#FF6584"/>
<path d="M341.134 80.419L341.109 80.6961C323.719 79.4957 306.33 78.2933 288.944 77.0888C276.382 76.2208 263.383 75.2359 252.283 69.2771C248.069 67.0179 243.965 64.0016 239.186 63.7923C233.258 63.5276 228.086 67.6827 224.019 72.0164C199.982 97.6737 193.022 136.904 166.055 159.441C183.063 117.41 203.37 76.796 226.784 37.9811C231.108 30.8097 236.238 23.1519 244.266 20.8127C251.927 18.5781 259.765 21.8407 266.817 26.0266C268.328 26.9254 269.802 27.8672 271.228 28.8029C282.094 35.9312 292.783 43.3325 303.294 51.0067C316.2 60.4189 328.813 70.223 341.134 80.419Z" fill="#F2F2F2"/>
<path d="M397.379 134.836C378.791 108.544 357.195 84.5225 333.032 63.2629C326.085 57.1441 318.932 51.2509 311.575 45.5835C297.911 35.0444 283.58 25.4028 268.673 16.7191C263.783 13.8751 258.836 11.144 253.832 8.52577C249.943 6.50052 245.803 4.64763 241.318 4.93695C238.181 5.20566 235.184 6.36043 232.675 8.26723C227.165 12.2993 223.516 18.5966 220.512 24.5985C217.883 29.8617 215.432 35.2295 212.932 40.5666C211.869 42.8381 210.807 45.1034 209.707 47.3564C205.874 55.2481 201.951 63.0967 197.937 70.9022C192.765 80.9608 187.443 90.9434 181.972 100.85C170.478 121.675 158.35 142.125 145.587 162.199C126.827 191.703 106.756 220.313 85.3743 248.029C82.7513 251.42 81.6701 252.208 79.0103 255.575C78.396 256.363 77.3025 255.255 77.9107 254.474C100.093 226.379 119.406 199.835 138.879 169.782C153.561 147.123 167.436 123.961 180.504 100.296C184.699 92.706 188.807 85.0687 192.826 77.3843C199.332 64.9434 205.612 52.3857 211.667 39.7109C213.264 36.3745 214.845 33.0257 216.409 29.6647C221.379 18.9967 228.615 3.13331 242.59 3.34876C246.7 3.41032 250.514 5.07853 254.114 6.92526C257.781 8.81509 261.381 10.8219 264.975 12.8594C266.412 13.672 267.844 14.4969 269.269 15.3341C274.914 18.6212 280.475 22.0459 285.953 25.608C295.094 31.5483 303.993 37.8436 312.65 44.494C316.76 47.6519 320.808 50.8816 324.795 54.1831C349.81 74.9227 372.302 98.5408 391.808 124.55C394.16 127.683 396.464 130.851 398.718 134.054C399.296 134.873 397.951 135.649 397.379 134.836Z" fill="#E4E4E4"/>
<path d="M334.416 55.428C335.228 54.5209 336.035 53.6138 336.852 52.7067C343.297 45.5639 350.212 38.5041 359.063 34.4092C363.283 32.3951 367.889 31.325 372.563 31.2733C377.394 31.2888 382.117 32.5587 386.581 34.3367C388.691 35.1816 390.755 36.1405 392.788 37.1616C395.111 38.3331 397.392 39.5823 399.662 40.8419C403.925 43.2055 408.132 45.6728 412.283 48.2438C420.544 53.3598 428.546 58.8663 436.29 64.7633C440.304 67.8215 444.235 70.9799 448.083 74.2386C451.663 77.2657 455.17 80.374 458.604 83.5635C459.339 84.2426 460.435 83.1437 459.701 82.4647C458.796 81.6198 457.88 80.7801 456.964 79.9507C454.378 77.6078 451.75 75.3098 449.081 73.0568C444.214 68.9411 439.221 64.9845 434.102 61.1868C426.141 55.2776 417.906 49.7694 409.397 44.662C405.145 42.1118 400.835 39.6687 396.466 37.3327C395.147 36.6277 393.812 35.9383 392.462 35.2852C389.399 33.7369 386.216 32.4385 382.945 31.4028C378.311 29.9006 373.407 29.4179 368.57 29.9878C363.899 30.6686 359.399 32.2286 355.307 34.5855C346.618 39.4527 339.878 46.979 333.319 54.3239C332.657 55.0703 333.748 56.1744 334.416 55.428Z" fill="#E4E4E4"/>
<path d="M156.362 129.446L135.539 121.814L125.2 118.024C121.833 116.79 118.474 115.385 114.993 114.502C111.968 113.636 108.757 113.677 105.755 114.62C103.078 115.613 100.627 117.135 98.5488 119.096C96.4256 121.055 94.4501 123.169 92.6384 125.421C90.3875 128.132 88.1698 130.871 85.9422 133.601C76.7483 144.868 67.6145 156.185 58.5408 167.55C49.4673 178.915 40.4545 190.328 31.5024 201.789C22.5284 213.279 13.6161 224.817 4.76552 236.402C3.68131 237.821 2.59803 239.242 1.51567 240.662C0.917683 241.447 -0.430678 240.673 0.175751 239.877C9.09163 228.175 18.0697 216.521 27.1098 204.915C36.1722 193.281 45.2972 181.696 54.4849 170.16C63.6723 158.625 72.9219 147.14 82.2335 135.705C84.5533 132.856 86.8769 130.01 89.2044 127.168C91.1677 124.77 93.1088 122.346 95.2623 120.115C99.215 116.018 104.153 112.398 110.065 112.3C113.54 112.242 116.904 113.347 120.133 114.518C123.614 115.78 127.087 117.065 130.564 118.34L151.533 126.025L156.775 127.946C157.705 128.287 157.303 129.791 156.362 129.446Z" fill="#E4E4E4"/>
<path d="M361.803 43.397C372.385 37.9471 385.936 39.0145 395.66 45.8233C377.113 49.03 358.768 53.3205 340.72 58.673C348.214 54.2718 354.077 47.3761 361.803 43.397Z" fill="#F2F2F2"/>
<path d="M395.764 45.8046L397.801 47.4639C397.112 46.8831 396.396 46.3386 395.66 45.8234C395.695 45.8173 395.73 45.8106 395.764 45.8046Z" fill="#F2F2F2"/>
<path d="M99.3334 129.522C101.383 127.022 103.599 124.404 106.665 123.388L109.528 123.501C87.7379 162.085 58.3092 195.8 23.0479 222.575C48.4764 191.557 73.9049 160.54 99.3334 129.522Z" fill="#F2F2F2"/>
<path d="M314.031 270.203L296.698 262.54V255.952L302.875 255.917C303.834 255.912 304.767 255.606 305.543 255.042C306.319 254.478 306.899 253.685 307.202 252.774L311.542 239.728C311.772 239.036 311.834 238.3 311.725 237.58C311.615 236.86 311.336 236.176 310.911 235.585C310.486 234.994 309.927 234.513 309.28 234.181C308.633 233.849 307.916 233.676 307.189 233.676H296.698V227.545H309.868C310.907 227.545 311.914 227.192 312.726 226.544C313.539 225.896 314.107 224.991 314.34 223.977L317.329 210.95C317.483 210.276 317.484 209.576 317.331 208.902C317.179 208.228 316.876 207.597 316.446 207.056C316.017 206.515 315.471 206.078 314.849 205.778C314.228 205.478 313.547 205.322 312.857 205.322H296.698V203.789C296.698 202.976 296.376 202.197 295.802 201.622C295.228 201.047 294.45 200.724 293.639 200.724C292.828 200.724 292.05 201.047 291.476 201.622C290.902 202.197 290.58 202.976 290.58 203.789V205.322H182.245V203.789C182.245 202.976 181.923 202.197 181.349 201.622C180.776 201.047 179.998 200.724 179.186 200.724C178.375 200.724 177.597 201.047 177.024 201.622C176.45 202.197 176.128 202.976 176.128 203.789V205.322H163.282C162.592 205.322 161.911 205.478 161.29 205.778C160.668 206.078 160.122 206.515 159.693 207.056C159.263 207.597 158.961 208.228 158.808 208.902C158.655 209.576 158.656 210.276 158.811 210.95L161.799 223.977C162.032 224.991 162.601 225.896 163.413 226.544C164.225 227.192 165.233 227.545 166.271 227.545H176.128V233.676H168.95C168.227 233.676 167.514 233.847 166.869 234.176C166.225 234.504 165.667 234.981 165.241 235.567C164.816 236.152 164.534 236.831 164.42 237.546C164.305 238.262 164.361 238.994 164.583 239.684L169.012 253.459C169.311 254.389 169.898 255.199 170.688 255.773C171.478 256.346 172.43 256.652 173.405 256.646L176.128 256.631V262.54L162.108 270.203C161.505 270.203 160.909 270.322 160.352 270.553C159.795 270.784 159.289 271.123 158.863 271.55C158.437 271.977 158.099 272.484 157.869 273.042C157.638 273.6 157.52 274.198 157.52 274.801C157.52 276.021 158.003 277.19 158.863 278.053C159.724 278.915 160.891 279.399 162.108 279.399H176.128V313.117C176.128 313.93 176.45 314.71 177.024 315.285C177.597 315.859 178.375 316.182 179.186 316.182C179.998 316.182 180.776 315.859 181.349 315.285C181.923 314.71 182.245 313.93 182.245 313.117V279.399H290.58V313.117C290.58 313.93 290.902 314.71 291.476 315.285C292.05 315.859 292.828 316.182 293.639 316.182C294.45 316.182 295.228 315.859 295.802 315.285C296.376 314.71 296.698 313.93 296.698 313.117V279.399H314.031C315.248 279.399 316.415 278.915 317.276 278.053C318.136 277.19 318.62 276.021 318.62 274.801C318.62 274.198 318.501 273.6 318.27 273.042C318.04 272.484 317.702 271.977 317.276 271.55C316.85 271.123 316.344 270.784 315.787 270.553C315.231 270.322 314.634 270.203 314.031 270.203ZM182.245 227.545H290.58V233.676H182.245V227.545ZM182.245 262.54V256.596L290.58 255.987V262.54H182.245Z" fill="#CCCCCC"/>
<path d="M55.5139 257.197L60.4189 241.189C54.5172 234.68 47.1192 229.713 38.8672 226.72C46.9294 240.104 39.1171 257.565 42.3726 272.855C43.4244 277.616 45.5319 282.078 48.5388 285.912C51.5458 289.746 55.3751 292.853 59.743 295.002L67.1865 304.244C71.0886 297.412 73.4664 289.814 74.1559 281.972C74.8455 274.131 73.8304 266.233 71.1807 258.822C69.6531 254.68 67.611 250.747 65.1026 247.116C60.6794 252.327 55.5139 257.197 55.5139 257.197Z" fill="#2E6140"/>
<path d="M28.5435 259.242L25.8095 242.723C17.6304 239.534 8.79827 238.395 0.0800781 239.404C13.253 247.78 14.0314 266.9 23.7499 279.13C26.8102 282.921 30.6827 285.973 35.0802 288.061C39.4778 290.149 44.2878 291.218 49.1538 291.189L59.9291 296.135C60.3812 288.276 59.1277 280.412 56.2551 273.086C53.3825 265.759 48.9589 259.144 43.2893 253.695C40.0785 250.671 36.5002 248.063 32.6391 245.934C30.9992 252.574 28.5435 259.242 28.5435 259.242Z" fill="#24643A"/>
<path d="M415.83 189.425L405.101 176.587C408.013 168.291 412.902 160.833 419.344 154.86C417.108 170.332 431.08 183.376 434.012 198.731C434.89 203.527 434.68 208.46 433.397 213.164C432.114 217.867 429.791 222.221 426.601 225.903L423.328 237.318C417.083 232.544 411.944 226.469 408.267 219.514C404.589 212.558 402.46 204.886 402.027 197.026C401.827 192.614 402.182 188.195 403.085 183.872C409.182 186.95 415.83 189.425 415.83 189.425Z" fill="#2E6140"/>
<path d="M441.473 180.802L437.583 164.516C443.881 158.392 451.577 153.902 460 151.435C451.114 164.284 457.814 182.203 453.605 197.257C452.256 201.942 449.872 206.263 446.631 209.9C443.389 213.536 439.372 216.395 434.878 218.265L426.869 227.019C423.403 219.955 421.508 212.221 421.312 204.352C421.116 196.483 422.625 188.665 425.735 181.436C427.52 177.398 429.805 173.601 432.536 170.136C436.623 175.615 441.473 180.802 441.473 180.802Z" fill="#1E6637"/>
<path d="M229.663 329.977L222.615 333.384L206.146 307.763L216.548 302.734L229.663 329.977Z" fill="#FFB6B6"/>
<path d="M230.458 226.854L224.194 236.326C224.194 236.326 186.947 261.043 188.501 270.238C189.045 273.455 191.409 280.22 194.449 287.76C195.383 290.077 199.773 294.682 200.801 297.065C205.995 309.093 208.582 318.717 211.076 320.005C213.846 321.444 213.563 320.302 215.26 322.926L225.089 319.232C225.089 319.232 226.619 315.789 227.38 314.083C228.14 312.378 226.948 311.529 226.948 311.529C226.948 311.529 225.505 312.3 225.756 310.681C226.006 309.062 225.92 308.551 225.324 308.126C224.727 307.702 222.421 303.364 222.421 303.364C220.315 300.268 218.623 296.908 217.387 293.371C216.839 291.819 216.894 288.101 216.159 286.6C214.61 283.438 214.063 281.104 211.561 279.459C211.561 279.459 243.054 264.127 246.009 256.794C248.964 249.461 245.923 225.279 245.923 225.279L230.458 226.854Z" fill="#2F2E41"/>
<path d="M233.401 333.698L209.567 343L209.45 342.698C208.492 340.233 208.55 337.487 209.612 335.064C210.675 332.642 212.653 330.742 215.113 329.782L215.114 329.781L218.181 324.773L227.59 324.912L229.67 324.1L233.401 333.698Z" fill="#FF6584"/>
<path d="M289.001 292.675L300.517 291.802L299.082 322.244L291.279 322.836L289.001 292.675Z" fill="#FFB6B6"/>
<path d="M225.717 235.23C223.069 223.546 230.531 258.386 238.271 264.9C241.314 267.462 254.053 264.81 264.6 265.618C271.063 266.17 277.372 267.888 283.225 270.688C281.543 273.761 283.303 278.346 283.631 282.468C284.228 289.989 284.829 296.904 284.829 296.904C284.829 296.904 284.823 301.82 284.496 302.475C284.168 303.13 284.331 303.621 285.31 304.933C286.29 306.245 284.655 306.243 284.655 306.243C284.655 306.243 283.999 307.553 285.469 308.702C286.939 309.85 290.429 313.196 290.429 313.196L299.789 312.363C300.059 309.248 300.867 308.838 302.639 306.265C304.326 303.829 303.94 289.216 302.751 275.5C302.671 274.57 303.965 271.646 303.877 270.728C302.999 261.525 300.412 255.145 299.271 251.702C298.484 249.326 294.704 247.277 289.594 245.551C288.815 245.288 288.004 245.032 287.168 244.783C273.08 240.595 251.872 238.538 251.872 238.538L240.276 228.203L225.717 235.23Z" fill="#2F2E41"/>
<path d="M290.229 321.166L292.348 320.46L299.504 314.337L305.055 316.232L305.056 316.232C307.561 315.399 310.295 315.597 312.655 316.783C315.015 317.969 316.808 320.045 317.64 322.556L317.742 322.864L293.469 330.941L290.229 321.166Z" fill="#FF6584"/>
<path d="M236.404 167.95L229.437 173.265L221.036 175.852C221.036 175.852 217.563 224.808 214.434 227.944C211.304 231.08 214.127 231.164 213.498 235.238C212.869 239.312 211.341 247.663 211.341 247.663C232.465 258.868 250.675 259.168 265.303 246.056C265.49 245.245 265.395 244.395 265.034 243.645C264.672 242.896 264.066 242.292 263.315 241.935C260.593 240.488 265.825 233.731 263.6 232.602C261.375 231.472 264.505 221.672 264.505 221.672L262.452 201.225L264.074 197.957L260.116 177.958L253.248 175.444L250.504 168.82L236.404 167.95Z" fill="#15241B"/>
<path d="M243.535 164.991C251.145 164.991 257.314 158.809 257.314 151.183C257.314 143.557 251.145 137.375 243.535 137.375C235.925 137.375 229.756 143.557 229.756 151.183C229.756 158.809 235.925 164.991 243.535 164.991Z" fill="#FFB6B6"/>
<path d="M232.04 254.961C232.071 254.076 231.908 253.196 231.563 252.382C231.218 251.568 230.699 250.839 230.043 250.247C229.387 249.656 228.609 249.216 227.764 248.958C226.92 248.7 226.029 248.631 225.155 248.755L215.338 229.633L209.868 239.372L220.029 256.037C220.335 257.495 221.164 258.789 222.359 259.675C223.554 260.561 225.031 260.977 226.512 260.845C227.992 260.712 229.373 260.04 230.391 258.955C231.41 257.871 231.997 256.449 232.04 254.961Z" fill="#FFB6B6"/>
<path d="M215.506 250.283L194.449 217.579L194.519 217.428C194.598 217.256 199.367 206.936 203.987 197.484C204.698 196.028 205.406 194.593 206.093 193.219C206.39 192.626 206.682 192.045 206.969 191.477C208.91 187.643 210.605 184.474 211.617 182.969C213.856 179.566 217.189 177.033 221.062 175.789L221.16 175.764L221.253 175.803C223.147 176.604 224.713 178.028 225.692 179.841C226.67 181.654 227.003 183.746 226.635 185.774C224.809 195.554 220.739 204.775 214.747 212.708L211.334 217.217L223.196 243.063L215.506 250.283Z" fill="#061F0F"/>
<path d="M270.342 262.477V263.355C270.342 263.87 270.138 264.363 269.775 264.727C269.412 265.091 268.919 265.295 268.406 265.295H204.014C203.501 265.295 203.008 265.091 202.645 264.727C202.282 264.363 202.078 263.87 202.078 263.355V262.477C202.078 261.962 202.282 261.469 202.645 261.105C203.008 260.741 203.501 260.537 204.014 260.537H205.158C205.117 260.395 205.096 260.248 205.095 260.101V227.167C205.095 226.736 205.267 226.322 205.571 226.017C205.875 225.712 206.288 225.541 206.719 225.54H265.701C266.132 225.541 266.545 225.712 266.849 226.017C267.153 226.322 267.325 226.736 267.325 227.167V260.101C267.325 260.249 267.304 260.395 267.262 260.537H268.406C268.919 260.537 269.412 260.741 269.775 261.105C270.138 261.469 270.342 261.962 270.342 262.477Z" fill="#3F3D56"/>
<path d="M237.479 244.147C236.751 244.147 236.04 243.931 235.434 243.526C234.829 243.121 234.358 242.545 234.079 241.871C233.8 241.197 233.728 240.456 233.87 239.74C234.012 239.025 234.362 238.368 234.877 237.852C235.391 237.336 236.047 236.985 236.761 236.843C237.475 236.701 238.215 236.774 238.887 237.053C239.56 237.332 240.134 237.804 240.539 238.411C240.943 239.017 241.159 239.73 241.159 240.46C241.158 241.437 240.77 242.375 240.08 243.066C239.39 243.757 238.455 244.146 237.479 244.147ZM237.479 237.408C236.876 237.408 236.288 237.587 235.787 237.922C235.286 238.257 234.896 238.734 234.665 239.292C234.434 239.849 234.374 240.463 234.492 241.055C234.609 241.647 234.899 242.191 235.325 242.618C235.751 243.045 236.294 243.335 236.885 243.453C237.475 243.571 238.088 243.511 238.644 243.28C239.201 243.048 239.677 242.657 240.011 242.155C240.346 241.653 240.525 241.063 240.525 240.46C240.524 239.651 240.203 238.875 239.632 238.303C239.061 237.73 238.286 237.409 237.479 237.408Z" fill="white"/>
<path d="M236.21 242.558C238.067 242.558 239.572 241.05 239.572 239.188C239.572 237.327 238.067 235.818 236.21 235.818C234.352 235.818 232.847 237.327 232.847 239.188C232.847 241.05 234.352 242.558 236.21 242.558Z" fill="white"/>
<path d="M287.915 124.923C287.335 125.59 286.908 126.377 286.665 127.227C286.421 128.077 286.366 128.971 286.504 129.844C286.643 130.718 286.97 131.551 287.464 132.284C287.958 133.017 288.607 133.633 289.364 134.088L284.975 155.138L295.343 151.024L297.922 131.665C298.6 130.34 298.769 128.811 298.398 127.369C298.027 125.927 297.14 124.671 295.907 123.84C294.673 123.009 293.179 122.661 291.706 122.86C290.233 123.06 288.884 123.794 287.915 124.923Z" fill="#FFB6B6"/>
<path d="M297.819 138.99L293.626 177.683L293.478 177.756C293.355 177.816 288.043 180.427 281.523 183.536C280.423 184.061 280.58 186.333 279.431 186.876C278.639 187.25 276.548 185.893 275.747 186.268C268.62 189.608 261.413 192.856 258.541 193.736C254.664 194.967 250.483 194.832 246.692 193.353L246.601 193.311L246.553 193.223C245.585 191.405 245.263 189.31 245.642 187.285C246.021 185.259 247.077 183.423 248.637 182.08C256.201 175.635 265.157 171.04 274.797 168.658L280.283 167.309L287.308 139.746L297.819 138.99Z" fill="#15241B"/>
<path d="M274.343 124.52L275.921 138.869C276.031 139.227 276.252 139.54 276.553 139.763C276.853 139.985 277.217 140.106 277.591 140.106H284.864C285.238 140.106 285.602 139.985 285.902 139.763C286.203 139.54 286.425 139.227 286.535 138.869L287.841 127.872C288.219 128.057 288.634 128.15 289.054 128.143C289.474 128.136 289.887 128.029 290.258 127.831C290.628 127.633 290.947 127.35 291.187 127.005C291.428 126.659 291.583 126.262 291.64 125.845C291.697 125.428 291.654 125.003 291.515 124.605C291.377 124.208 291.146 123.849 290.842 123.559C290.538 123.268 290.17 123.054 289.767 122.934C289.364 122.814 288.939 122.791 288.526 122.868C288.363 122.675 288.16 122.52 287.931 122.414C287.702 122.308 287.452 122.253 287.2 122.254H276.014C275.74 122.254 275.47 122.318 275.226 122.442C274.982 122.565 274.77 122.744 274.608 122.965C274.445 123.185 274.336 123.441 274.29 123.711C274.245 123.981 274.262 124.258 274.343 124.52ZM288.07 127.128L288.87 124.52C288.963 124.22 288.972 123.899 288.897 123.593C288.931 123.592 288.963 123.583 288.998 123.583C289.5 123.583 289.982 123.783 290.338 124.139C290.693 124.496 290.893 124.979 290.893 125.482C290.893 125.986 290.693 126.469 290.338 126.825C289.982 127.181 289.5 127.381 288.998 127.381C288.672 127.379 288.352 127.292 288.07 127.128Z" fill="#3F3D56"/>
<path d="M254.758 139.321C253.625 136.018 247.984 133.726 238.839 133.408C229.694 133.089 227.375 143.888 227.375 143.888C221.27 148.851 233.894 162.137 234.504 161.659L234.23 159.162C233.775 155.028 231.843 151.802 234.3 147.492L236.66 147.52C239.707 148.107 242.754 148.694 245.801 149.281L242.194 146.098L242.295 145.94C243.83 146.741 245.5 147.249 247.22 147.439C249.159 147.553 251.279 146.78 252.208 145.07C252.456 144.6 252.607 144.085 252.653 143.556C255.268 144.603 256.464 147.833 256.464 147.833C256.464 147.833 255.891 142.625 254.758 139.321Z" fill="#2F2E41"/>
</g>
<defs>
<clipPath id="clip0_32_78">
<rect width="460" height="343" fill="white"/>
</clipPath>
</defs>
</svg>
